<mxfile host="app.diagrams.net" modified="2023-11-25T18:41:45.931Z" agent="Mozilla/5.0 (Windows NT 10.0; Win64; x64) AppleWebKit/537.36 (KHTML, like Gecko) Chrome/119.0.0.0 Safari/537.36" etag="e_UsqQGghUISNFIjqzuB" version="22.1.4" type="github">
  <diagram name="Page-1" id="Q2WABzthNsdVg-Uutrda">
    <mxGraphModel dx="794" dy="464" grid="1" gridSize="10" guides="1" tooltips="1" connect="1" arrows="1" fold="1" page="1" pageScale="1" pageWidth="850" pageHeight="1100" math="0" shadow="0">
      <root>
        <mxCell id="0" />
        <mxCell id="1" parent="0" />
        <mxCell id="-HbKgEgqQtazckbZR0aA-2" style="edgeStyle=orthogonalEdgeStyle;rounded=0;orthogonalLoop=1;jettySize=auto;html=1;" edge="1" parent="1" source="-HbKgEgqQtazckbZR0aA-1">
          <mxGeometry relative="1" as="geometry">
            <mxPoint x="290" y="120" as="targetPoint" />
          </mxGeometry>
        </mxCell>
        <mxCell id="-HbKgEgqQtazckbZR0aA-1" value="start" style="rounded=1;whiteSpace=wrap;html=1;" vertex="1" parent="1">
          <mxGeometry x="230" y="10" width="120" height="60" as="geometry" />
        </mxCell>
        <mxCell id="-HbKgEgqQtazckbZR0aA-4" style="edgeStyle=orthogonalEdgeStyle;rounded=0;orthogonalLoop=1;jettySize=auto;html=1;" edge="1" parent="1" source="-HbKgEgqQtazckbZR0aA-3" target="-HbKgEgqQtazckbZR0aA-5">
          <mxGeometry relative="1" as="geometry">
            <mxPoint x="290" y="240" as="targetPoint" />
          </mxGeometry>
        </mxCell>
        <mxCell id="-HbKgEgqQtazckbZR0aA-3" value="num" style="shape=card;whiteSpace=wrap;html=1;" vertex="1" parent="1">
          <mxGeometry x="230" y="120" width="120" height="80" as="geometry" />
        </mxCell>
        <mxCell id="-HbKgEgqQtazckbZR0aA-8" style="edgeStyle=orthogonalEdgeStyle;rounded=0;orthogonalLoop=1;jettySize=auto;html=1;" edge="1" parent="1" source="-HbKgEgqQtazckbZR0aA-5">
          <mxGeometry relative="1" as="geometry">
            <mxPoint x="291" y="390" as="targetPoint" />
          </mxGeometry>
        </mxCell>
        <mxCell id="-HbKgEgqQtazckbZR0aA-20" value="" style="edgeStyle=orthogonalEdgeStyle;rounded=0;orthogonalLoop=1;jettySize=auto;html=1;" edge="1" parent="1" source="-HbKgEgqQtazckbZR0aA-5">
          <mxGeometry relative="1" as="geometry">
            <mxPoint x="131" y="300" as="targetPoint" />
          </mxGeometry>
        </mxCell>
        <mxCell id="-HbKgEgqQtazckbZR0aA-5" value="i=2&lt;br&gt;&lt;br&gt;&lt;br&gt;&lt;br&gt;" style="shape=sumEllipse;perimeter=ellipsePerimeter;whiteSpace=wrap;html=1;backgroundOutline=1;" vertex="1" parent="1">
          <mxGeometry x="231" y="250" width="120" height="100" as="geometry" />
        </mxCell>
        <mxCell id="-HbKgEgqQtazckbZR0aA-6" value="i++" style="text;html=1;strokeColor=none;fillColor=none;align=center;verticalAlign=middle;whiteSpace=wrap;rounded=0;" vertex="1" parent="1">
          <mxGeometry x="300" y="285" width="60" height="35" as="geometry" />
        </mxCell>
        <mxCell id="-HbKgEgqQtazckbZR0aA-7" value="i&amp;lt;num" style="text;html=1;strokeColor=none;fillColor=none;align=center;verticalAlign=middle;whiteSpace=wrap;rounded=0;" vertex="1" parent="1">
          <mxGeometry x="231" y="285" width="60" height="30" as="geometry" />
        </mxCell>
        <mxCell id="-HbKgEgqQtazckbZR0aA-11" style="edgeStyle=orthogonalEdgeStyle;rounded=0;orthogonalLoop=1;jettySize=auto;html=1;entryX=1;entryY=0.5;entryDx=0;entryDy=0;" edge="1" parent="1" source="-HbKgEgqQtazckbZR0aA-10" target="-HbKgEgqQtazckbZR0aA-6">
          <mxGeometry relative="1" as="geometry">
            <Array as="points">
              <mxPoint x="420" y="445" />
              <mxPoint x="420" y="303" />
            </Array>
          </mxGeometry>
        </mxCell>
        <mxCell id="-HbKgEgqQtazckbZR0aA-12" value="false" style="edgeLabel;html=1;align=center;verticalAlign=middle;resizable=0;points=[];" vertex="1" connectable="0" parent="-HbKgEgqQtazckbZR0aA-11">
          <mxGeometry x="0.0447" y="-3" relative="1" as="geometry">
            <mxPoint as="offset" />
          </mxGeometry>
        </mxCell>
        <mxCell id="-HbKgEgqQtazckbZR0aA-16" style="edgeStyle=orthogonalEdgeStyle;rounded=0;orthogonalLoop=1;jettySize=auto;html=1;" edge="1" parent="1" source="-HbKgEgqQtazckbZR0aA-10">
          <mxGeometry relative="1" as="geometry">
            <mxPoint x="296" y="560" as="targetPoint" />
          </mxGeometry>
        </mxCell>
        <mxCell id="-HbKgEgqQtazckbZR0aA-17" value="true" style="edgeLabel;html=1;align=center;verticalAlign=middle;resizable=0;points=[];" vertex="1" connectable="0" parent="-HbKgEgqQtazckbZR0aA-16">
          <mxGeometry x="-0.0711" relative="1" as="geometry">
            <mxPoint as="offset" />
          </mxGeometry>
        </mxCell>
        <mxCell id="-HbKgEgqQtazckbZR0aA-10" value="num%i==0" style="rhombus;whiteSpace=wrap;html=1;" vertex="1" parent="1">
          <mxGeometry x="231" y="390" width="129" height="110" as="geometry" />
        </mxCell>
        <mxCell id="-HbKgEgqQtazckbZR0aA-18" value="המספר לא ראשוני" style="shape=document;whiteSpace=wrap;html=1;boundedLbl=1;" vertex="1" parent="1">
          <mxGeometry x="235.5" y="560" width="120" height="80" as="geometry" />
        </mxCell>
        <mxCell id="-HbKgEgqQtazckbZR0aA-21" value="המספר ראשוני" style="shape=document;whiteSpace=wrap;html=1;boundedLbl=1;" vertex="1" parent="1">
          <mxGeometry x="10" y="270" width="120" height="80" as="geometry" />
        </mxCell>
      </root>
    </mxGraphModel>
  </diagram>
</mxfile>
